**ABCDEFGHIJKLMNOPQRSTUVWXYZabcdefghijklmnopqrstuvwxyz**************************
**PARASOLID !"#$%&'()*+,-./:;<=>?@[\]^_`{|}~0123456789**************************
**PART1;
MC=unknown;
MC_MODEL=unknown;
MC_ID=unknown;
OS=unknown;
OS_RELEASE=unknown;
FRU=sdl_parasolid_customer_support;
APPL=parasolid_acceptance_tests;
SITE=unknown;
USER=unknown;
FORMAT=text;
GUISE=transmit;
KEY=out;
FILE=out.xmt_txt;
DATE=unknown;
**PART2;
SCH=SCH_601144_6021;
USFLD_SIZE=0;
**PART3;
**END_OF_HEADER*****************************************************************
T50 : TRANSMIT FILE created by modeller version 60114415 SCH_601144_60210 12 1 1
440 2 3 0 0 0 1e3 1e-8 4 2 0 0 5 1 6 7 8 9 10 11 12 81 1 2 488 13 1 14 0 0 0 15
 70 3 0 1 0 0 4 11 20 4 16 16 1 102 3 4 out13 6 1373 0 1 0 17 0 0 18 0 52 7 63 0
 19 20 0 0 +.0725013936794863 -250258941955768e-32 118451543660027e-45 1 0 16337
8298883021e-44 .471658008905784 .241921895599644 .970295726276002 16337829888302
1e-44 0 -1 31 8 538 0 21 22 0 0 -.0207522562439977 .452729429533332 0 0 0 1 1 0
 0 .00889 29 9 1438 0 23 24 0 .02349941732399125 .461184321963196 0 19 10 1375 0
 1 18 0 25 V16 11 1365 0 26 0 27 28 ?0 0 1 18 12 1040 0 29 0 30 24 ?1 17 29 31 3
2 33 12 34 35 0 36 +18 30 1039 0 33 12 37 38 ?1 29 24 1436 0 12 38 9 .0375627061
8365705 .451193332898259 0 29 38 1435 0 30 39 24 .0374842158670858 .450951764543
121 -1104405267309416e-44 29 39 1434 0 37 40 38 .03581141291652655 .451495291169
674 -283489388245664e-30 18 37 1038 0 41 30 42 39 ?1 29 40 1433 0 42 43 39 .0287
1262442956905 .456844611984845 0 18 42 1037 0 44 37 45 40 ?1 29 43 1432 0 45 46
 40 .0261096499537404 .458199634730389 947837194689049e-29 18 45 1036 0 47 42 48
 43 ?1 29 46 1431 0 48 49 43 .0249715403634579 .454696893580873 -489093761237027
e-43 18 48 1035 0 50 45 51 46 ?1 29 49 1430 0 51 52 46 .0313056239364994 .452638
825070406 -702778862755762e-31 18 51 1034 0 53 48 54 49 ?1 29 52 1429 0 54 55 49
 .03167967392601555 .452460412377401 917306061511857e-29 18 54 1033 0 56 51 57 5
2 ?1 29 55 1428 0 57 58 52 .03359251382348235 .451218199623415 0 18 57 1032 0 59
 54 60 55 ?1 29 58 1427 0 60 61 55 .0339665638129985 .45103978693041 90342827370
4042e-29 18 60 1031 0 62 57 63 58 ?1 29 61 1426 0 63 64 58 .0383890278974832 .44
96028412434775 -423048840386765e-30 18 63 1030 0 65 60 66 61 ?1 29 64 1425 0 66
 67 61 .0387477995823321 .448898712165715 0 18 66 1029 0 68 63 69 64 ?1 29 67 14
24 0 69 70 64 .03864576217078945 .4485846733040345 -1577721810442025e-45 18 69 1
028 0 71 66 72 67 ?1 29 70 1423 0 72 73 67 .02936092606266085 .451601499431861 -
3914604527235845e-45 18 72 1027 0 74 69 75 70 ?1 29 73 1422 0 75 76 70 .02837979
710551995 .4485818949926235 0 18 75 1026 0 77 72 78 73 ?1 29 76 1421 0 79 80 73
 .01918419017631405 .462586424257196 600899703868449e-30 18 79 1009 0 81 23 82 7
6 ?1 29 80 1420 0 78 83 76 .03766463321364845 .4455650688647975 -448733698172174
5e-31 18 78 1025 0 84 75 85 80 ?1 29 83 1419 0 82 86 80 -.01121260302271312 .492
49329644162 1169308302075802e-29 18 82 1008 0 87 79 88 83 ?1 29 86 1418 0 85 89
 83 .0375625958021063 .4452510300031165 0 18 85 1024 0 90 78 91 86 ?1 29 89 1417
 0 88 92 86 -.0077340187087118 .491363035882994 218635592535101e-29 18 88 1007 0
 93 82 94 89 ?1 29 92 1416 0 91 95 89 .0368584667243438 .4448922583182675 0 18 9
1 1023 0 96 85 97 92 ?1 29 95 1415 0 94 98 92 .01959766943077715 .46675468166799
4 989167154991659e-29 18 94 1006 0 99 88 100 95 ?1 29 98 1414 0 97 101 95 .03243
60026398591 .4463292040051995 -2093123090626275e-31 18 97 1022 0 102 91 103 98 ?
1 29 101 1413 0 100 104 98 .0200026915182463 .467959641745562 989470558112492e-2
9 18 100 1005 0 105 94 106 101 ?1 29 104 1412 0 103 107 101 .0320285214918246 .4
464047261720045 903428273704042e-29 18 103 1021 0 108 97 109 104 ?1 29 107 1411
 0 106 110 104 -.002117748440220145 .492208913102958 998695129184272e-29 18 106
 1004 0 111 100 112 107 ?1 29 110 1410 0 109 113 107 .0297508471702527 .44652409
4025128 0 18 109 1020 0 114 103 115 110 ?1 29 113 1409 0 112 116 110 .0128339006
674314 .487350827816718 1230247931443062e-30 18 112 1003 0 117 106 118 113 ?1 29
 116 1408 0 115 119 113 .0293433660222181 .4465996161919325 917306061511857e-29
 18 115 1019 0 120 109 121 116 ?1 29 119 1407 0 118 122 116 .0230866777499519 .4
78624656221399 989551766738065e-29 18 118 1002 0 123 112 124 119 ?1 29 122 1406
 0 121 125 119 .0230092824491766 .448657684702399 2358467144348515e-31 18 121 10
18 0 126 115 127 122 ?1 29 125 1405 0 127 128 122 .02187117285889285 .4451549435
52885 0 18 127 1017 0 129 121 130 125 ?1 29 128 1404 0 124 131 125 .028415852706
27775 .476893102313417 4005492567504055e-31 18 124 1001 0 132 118 133 128 ?1 29
 131 1403 0 134 135 128 .0180050951640015 .4442745371034695 3923459056238e-28 18
 134 979 0 136 137 138 131 ?1 29 135 1402 0 137 139 131 .01368986801632806 .4456
766393974675 98370033117293e-28 18 137 980 0 140 141 134 135 ?1 29 139 1401 0 14
1 142 135 -.02848047266838825 .4393482583110475 235447499449202e-29 18 141 981 0
 143 144 137 139 ?1 29 142 1400 0 144 145 139 -.02500188835438735 .4382179977524
22 126525725722017e-28 18 144 982 0 146 147 141 142 ?1 29 145 1399 0 147 148 142
 .011574339526182 .4420614113073015 989470558112492e-29 18 147 983 0 149 150 144
 145 ?1 29 148 1398 0 150 151 145 .01119375151484608 .4408485121171385 986723350
538042e-29 18 150 984 0 152 153 147 148 ?1 29 151 1397 0 153 154 148 -.020955424
4173204 .4342325078696065 1952857218210705e-30 18 153 985 0 155 156 150 151 ?1 2
9 154 1396 0 156 157 151 -.00600377530966933 .429374422583367 1067335073206912e-
29 18 156 986 0 158 159 153 154 ?1 29 157 1395 0 159 160 154 .00742001056233002
 .430407612535662 658106887117741e-30 18 159 987 0 161 162 156 157 ?1 29 160 139
4 0 162 163 157 .01274918551865576 .4286760586276805 964490540058426e-29 18 162
 988 0 164 165 159 160 ?1 29 163 1393 0 165 166 160 .02148466439202145 .42744836
7135292 0 18 165 989 0 167 168 162 163 ?1 29 166 1392 0 168 169 163 .03332554682
568815 .427861859861335 85346823759591e-28 18 168 990 0 170 171 165 166 ?1 29 16
9 1391 0 171 172 166 .04158767117044475 .4251773329289975 0 18 171 991 0 173 174
 168 169 ?1 29 172 1390 0 175 176 169 .03525509087646215 .444091223257174 0 18 1
75 1013 0 177 178 179 172 ?1 29 176 1389 0 174 180 172 .0541977690484113 .415325
2447080985 0 18 174 992 0 181 182 171 176 ?1 29 180 1388 0 182 183 176 .05146772
59961585 .406923036150401 0 18 182 993 0 184 185 174 180 ?1 29 183 1387 0 185 18
6 180 .0776290911682746 .383238387260348 0 18 185 994 0 187 188 182 183 ?1 29 18
6 1386 0 188 189 183 .1094227281113004 .480863531481972 0 18 188 995 0 190 191 1
85 186 ?1 29 189 1385 0 191 192 186 .0725013936794863 .471658008905784 0 18 191
 996 0 193 194 188 189 ?1 29 192 1384 0 194 195 189 .0697958727026482 .463331271
535889 0 18 194 997 0 196 197 191 192 ?1 29 195 1383 0 197 198 192 .053803177058
1136 .462772794297735 85346823759591e-28 18 197 998 0 199 200 194 195 ?1 29 198
 1382 0 133 201 195 .03620462252242435 .472751739941132 964490540058426e-29 18 1
33 1000 0 202 124 200 198 ?1 29 201 1381 0 200 203 198 .045541052713357 .4654573
21230073 0 18 200 999 0 204 133 197 201 ?1 29 203 1380 0 130 205 201 .0247734858
3211375 .4447211899728075 947837194689049e-29 18 130 1016 0 206 127 207 203 ?1 2
9 205 1379 0 207 208 203 .03366077824247475 .444876318238866 0 18 207 1015 0 209
 130 178 205 ?1 29 208 1378 0 178 210 205 .03533358119303225 .444332791612313 -3
643355168768505e-31 18 178 1014 0 211 207 175 208 ?1 29 210 1377 0 179 212 208 .
0209074081372246 .443840783523392 0 18 179 1012 0 213 175 23 210 ?1 29 212 1187
 0 138 214 210 .0261023917998199 .459829299217652 788860905221012e-45 18 138 118
6 0 32 134 215 212 ?1 29 214 16 0 215 216 212 .0776290911682746 .378958358352242
5 .0571158831226978 18 215 13 0 217 138 218 214 ?1 29 216 12 0 218 219 214 .0514
677259961584 .4023784956868315 .0606457216847399 18 218 9 0 220 215 221 216 ?1 2
9 219 8 0 221 222 216 .1094227281113004 .475493219206345 .0716654337745935 18 22
1 5 0 223 218 224 219 ?1 29 222 4 0 224 0 219 .0725013936794863 .466390504449126
 .0702934899166186 18 224 2 0 225 221 0 222 ?1 17 225 226 227 228 224 229 230 0
 231 -15 226 901 0 228 19 0 17 227 226 232 225 221 233 234 0 0 +17 228 226 225 2
32 191 190 235 0 0 -17 229 236 237 231 191 225 230 0 228 +16 230 54 0 229 238 23
9 240 ?0 0 1 17 231 236 229 220 224 241 242 0 233 -15 236 141 0 229 243 0 17 220
 236 231 244 218 245 239 0 246 -17 241 247 248 233 218 231 242 0 0 +16 242 10 0
 241 249 234 250 ?0 0 1 17 233 247 241 251 224 227 234 0 0 -15 247 19 0 251 17 0
 17 251 247 233 248 221 252 253 0 227 +16 234 6 0 227 242 253 254 ?0 0 1 16 253
 17 0 251 234 255 256 ?0 0 1 30 254 7 0 234 257 250 0 +.0725013936794863 .466390
504449126 .0702934899166186 .970295726276002 .239220097603727 .0360547981964745
 31 257 403 0 258 259 254 0 +.01643702909632205 .454131531827332 985307221770148
e-29 .951056516295134 -.309016994375009 -459643124291929e-28 -.309016994375009 -
.951056516295134 629130027025274e-28 .00889 30 250 11 0 242 254 260 0 +.07250139
36794863 .466390504449126 .0702934899166186 -.309016994374995 -.940435061038313
 -.1417405840163966 30 260 15 0 249 250 256 0 +.0514677259961584 .40237849568683
15 .0606457216847395 .74132650098248 -.663649176889486 -.1000239419088308 16 249
 14 0 248 261 242 260 ?0 0 1 30 256 18 0 253 260 262 0 +.0776290911682746 .37895
83583522425 .0571158831226978 .309662716240216 .940227356735602 .141709279218807
 31 262 64 0 261 256 263 0 +.0776290911682746 -250258941955768e-32 1268290885890
766e-46 -1 0 -163378298883021e-44 -163378298883021e-44 0 1 .383238387260348 16 2
61 50 0 264 239 249 262 ?0 0 1 31 263 65 0 239 262 240 0 +.0514677259961584 -250
258941955768e-32 84087095206298e-45 -1 0 -163378298883021e-44 -163378298883021e-
44 0 1 .406923036150401 16 239 51 0 245 230 261 263 ?0 0 1 31 240 66 0 230 263 2
65 0 +.0725013936794863 -250258941955768e-32 118451543660027e-45 -1 0 -163378298
883021e-44 -163378298883021e-44 0 1 .471658008905784 31 265 67 0 238 240 22 0 +.
1094227281113004 -250258941955768e-32 178772991779636e-45 -1 0 -163378298883021e
-44 -163378298883021e-44 0 1 .480863531481972 16 238 57 0 232 21 230 265 ?0 0 1
 38 22 143 0 255 265 8 0 +20 266 267 268 268 16 255 170 0 269 253 258 22 ?0 0 1
 52 20 62 0 243 270 7 271 -.0725013936794863 -250258941955768e-32 11845154366002
7e-45 1 0 163378298883021e-44 .471658008905784 .951056516295138 .309016994374994
 163378298883021e-44 0 -1 52 266 385 0 272 273 274 275 +.0622867029016972 .43923
4069742108 763262616845116e-29 .951056516295134 -.309016994375009 -4596431242919
29e-28 .0253492 .342020143325651 .939692620785915 -.309016994375009 -.9510565162
95134 629130027025274e-28 40 20 267 0 1 20 .001825237408478435 .3826102236254365
 ??.056572047055769 .4222558690346405 -.01783897165795865 .059093494752869 .4297
64156272343 -.0232525238025653 .0616662086590988 .4375823332055865 -.02525876117
36828 .0642470332368154 .4455847341078685 -.02442558477434305 .0665579426313042
 .452885828114366 -.0208592667700652 .068361767841637 .458673875466245 -.0149530
674730528 .0694767119166034 .462290498137018 -.00735452925673323 .06978901763798
96 .463308891710453 .001089964984704122 .0692636986927174 .461597228050287 .0094
2350078273586 .06795010790525 .457346082245316 .0166920655303333 .06598055851329
7 .451049631483582 .0220635979462603 .0635608381612909 .443441440665857 .0249326
0207291835 .0609515776227825 .4353947218179865 .02499056854633075 .0584422138039
821 .427810180889116 .0222482990228774 .0563218666109159 .421519207488251 .01701
65927845912 .0548484987586458 .4172113030155865 .00986790523171611 .054214030524
0975 .4153722528273355 .00158905768512291 .0545085889420023 .4162248501501225 -.
00688859479905943 .0556973724039238 .419686922955501 -.01459286193176456 .056572
0470557649 .4222558690346395 -.01783897165796015 41 1 268 H.0565720470557649 .42
22558690346395 -.01783897165796015 14 272 265 276 243 277 278 6 266 +?0 0 243 27
7 25 50 273 387 0 279 280 266 0 +.02936092606266075 .451601499431861 92424495541
5764e-29 -.951056516295134 .309016994375009 459643124291929e-28 .309016994375009
 .951056516295134 -629130027025274e-28 54 274 384 0 281 266 282 0 +.043564361941
90065 .445317327079535 85346823759591e-28 .951056516295134 -.309016994375009 -45
9643124291929e-28 .0316992 .0127 -.309016994375009 -.951056516295134 62913002702
5274e-28 141 275 22 275 275 266 14 281 259 283 284 285 286 6 274 -?0 0 284 285 2
5 52 282 383 0 284 274 287 0 -.0288446434572229 .450100053538212 924244955415764
e-29 -.951056516295134 .309016994375009 459643124291929e-28 .02381739256796255 .
3420201433256155 .939692620785928 .309016994375009 .951056516295134 -62913002702
5274e-28 14 284 253 288 289 281 290 6 282 -?0 0 289 281 25 54 287 382 0 289 282
 291 0 +.02058251911246675 .452784580470549 964490540058426e-29 .951056516295134
 -.309016994375009 -459643124291929e-28 -507999999999759e-19 .0254 -.30901699437
5009 -.951056516295134 629130027025274e-28 14 289 247 292 293 284 294 6 287 +?0
 0 293 284 25 51 291 381 0 293 287 295 0 -.02887036158409045 .450091697212242 92
4244955415764e-29 .951056516295134 -.309016994375009 -459643124291929e-28 .02534
92 -.309016994375009 -.951056516295134 629130027025274e-28 14 293 241 296 297 28
9 298 6 291 -?0 0 297 289 25 68 295 380 0 297 291 299 0 +300 .02887036158409045
 .450091697212242 924244955415764e-29 .951056516295134 -.309016994375009 -459643
124291929e-28 ????.3090169943750085 .951056516295134 -1747344689608775e-29 .0032
260032 14 297 235 301 302 293 303 6 295 -?0 0 302 293 25 51 299 379 0 302 295 30
4 0 -.02887036158409045 .450091697212242 924244955415764e-29 .951056516295134 -.
309016994375009 -459643124291929e-28 .03048 -.309016994375009 -.951056516295134
 629130027025274e-28 32 300 432 0 1 305 306 307 +.0250646337275474 .484712178770
901 904816052484824e-29 654793025410468e-28 4487513066392485e-29 1 .951056516295
139 -.3090169943749915 -484073393641723e-28 .0127 .0064008 32 305 433 0 1 308 30
0 309 +.02561429872973305 .483198224760579 908979388827168e-29 654793025410468e-
28 4487513066392485e-29 1 .951056516295139 -.3090169943749915 -484073393641723e-
28 .0291592 .0162306 31 306 431 0 310 300 311 0 +.02075225624399755 .45272942953
3333 963102761277645e-29 .951056516295134 -.309016994375009 -459643124291929e-28
 -.309016994375009 -.951056516295134 629130027025274e-28 .00889 141 307 295 307
 307 300 16 310 530 0 312 313 0 306 ?0 0 1 31 311 430 0 313 306 314 0 +.02350489
996852225 .451835041370522 950612752250612e-29 .951056516295134 -.30901699437500
9 -459643124291929e-28 -.309016994375009 -.951056516295134 629130027025274e-28 .
00840566013707791 16 313 535 0 315 316 310 311 ?0 0 1 31 314 429 0 316 311 317 0
 +.03640889853005965 .447642278077717 888162707115447e-29 .951056516295134 -.309
016994375009 -459643124291929e-28 -.309016994375009 -.951056516295134 6291300270
25274e-28 .0037338 16 316 548 0 318 319 313 314 ?0 0 1 31 317 428 0 319 314 320
 0 +.03640889853005965 .447642278077717 888162707115447e-29 .951056516295134 -.3
09016994375009 -459643124291929e-28 -.309016994375009 -.951056516295134 62913002
7025274e-28 .0034798 16 319 560 0 321 322 316 317 ?0 0 1 31 320 427 0 322 317 32
3 0 +.03473609557950105 .44818580470427 896489379800135e-29 .951056516295134 -.3
09016994375009 -459643124291929e-28 -.309016994375009 -.951056516295134 62913002
7025274e-28 .0034798 16 322 572 0 324 325 319 320 ?0 0 1 31 323 426 0 325 320 32
6 0 +.0267430551308414 .450782900978826 935347185662016e-29 .951056516295134 -.3
09016994375009 -459643124291929e-28 -.309016994375009 -.951056516295134 62913002
7025274e-28 .00637366013707796 16 325 584 0 327 328 322 323 ?0 0 1 31 326 425 0
 328 323 329 0 +.0239904114063167 .451677289141637 947837194689049e-29 .95105651
6295134 -.309016994375009 -459643124291929e-28 -.309016994375009 -.9510565162951
34 629130027025274e-28 .006858 16 328 596 0 330 331 325 326 ?0 0 1 31 329 424 0
 331 326 332 0 +.02399041140631725 .451677289141636 947837194689049e-29 .9510565
16295134 -.309016994375009 -459643124291929e-28 -.309016994375009 -.951056516295
134 629130027025274e-28 .00317499999999996 16 331 608 0 333 334 328 329 ?0 0 1 3
1 332 423 0 334 329 335 0 +.03032449497935875 .4496192206311695 917306061511857e
-29 .951056516295134 -.309016994375009 -459643124291929e-28 -.309016994375009 -.
951056516295134 629130027025274e-28 .003174999999999965 16 334 620 0 336 337 331
 332 ?0 0 1 31 335 422 0 337 332 338 0 +.0307152605481341 .4494922532012645 9145
30503950294e-29 .951056516295134 -.309016994375009 -459643124291929e-28 -.309016
994375009 -.951056516295134 629130027025274e-28 .003120907249233865 16 337 632 0
 339 340 334 335 ?0 0 1 31 338 421 0 340 335 341 0 +.03281051765765345 .44881146
28977095 906203831265605e-29 .951056516295134 -.309016994375009 -459643124291929
e-28 -.309016994375009 -.951056516295134 629130027025274e-28 .002530592750766055
 16 340 644 0 342 343 337 338 ?0 0 1 31 341 420 0 343 338 344 0 +.03320128322642
88 .448684495467805 903428273704042e-29 .951056516295134 -.309016994375009 -4596
43124291929e-28 -.309016994375009 -.951056516295134 629130027025274e-28 .0024764
99999999955 16 343 656 0 345 346 340 341 ?0 0 1 31 344 419 0 346 341 347 0 +.037
6237473109135 .4472475497808725 882611591992321e-29 .951056516295134 -.309016994
375009 -459643124291929e-28 -.309016994375009 -.951056516295134 629130027025274e
-28 .002476499999999955 16 346 668 0 348 349 343 344 ?0 0 1 31 347 418 0 349 344
 350 0 +.03815519769221915 .447074871084416 879836034430758e-29 .951056516295134
 -.309016994375009 -459643124291929e-28 -.309016994375009 -.951056516295134 6291
30027025274e-28 .00191770000000005 16 349 680 0 351 352 346 347 ?0 0 1 31 350 41
7 0 352 347 353 0 +.03815519769221915 .447074871084416 879836034430758e-29 .9510
56516295134 -.309016994375009 -459643124291929e-28 -.309016994375009 -.951056516
295134 629130027025274e-28 .00158749999999995 16 352 692 0 354 355 349 350 ?0 0
 1 31 353 416 0 355 350 356 0 +.02887036158409045 .450091697212242 9242449554157
64e-29 .951056516295134 -.309016994375009 -459643124291929e-28 -.309016994375009
 -.951056516295134 629130027025274e-28 .001587499999999955 16 355 704 0 357 358
 352 353 ?0 0 1 31 356 414 0 358 353 359 0 +.0476954241142792 .4439750636133665
 832651555884189e-29 .951056516295134 -.309016994375009 -459643124291929e-28 -.3
09016994375009 -.951056516295134 629130027025274e-28 .01976510371601885 16 358 7
22 0 360 361 355 356 ?0 0 1 31 359 413 0 361 356 362 0 +.0394332997695226 .44665
9590545704 872897140526851e-29 .951056516295134 -.309016994375009 -4596431242919
29e-28 -.309016994375009 -.951056516295134 629130027025274e-28 .0197651037160187
 16 361 727 0 363 364 358 359 ?0 0 1 31 362 412 0 364 359 365 0 +.02884464345722
29 .450100053538212 924244955415764e-29 .951056516295134 -.309016994375009 -4596
43124291929e-28 -.309016994375009 -.951056516295134 629130027025274e-28 .0238173
9256796255 16 364 739 0 366 367 361 362 ?0 0 1 31 365 411 0 367 362 368 0 +.0205
8251911246675 .452784580470549 964490540058426e-29 .951056516295134 -.3090169943
75009 -459643124291929e-28 -.309016994375009 -.951056516295134 629130027025274e-
28 .0253492 16 367 751 0 369 370 364 365 ?0 0 1 31 368 410 0 370 365 371 0 +.015
253344156141 .454516134378531 989470558112492e-29 .951056516295134 -.30901699437
5009 -459643124291929e-28 -.309016994375009 -.951056516295134 629130027025274e-2
8 .0253492 16 370 763 0 372 373 367 368 ?0 0 1 31 371 409 0 373 368 374 0 +.0034
1506267888112 .458362625200043 1047757266905312e-29 .951056516295134 -.309016994
375009 -459643124291929e-28 -.309016994375009 -.951056516295134 629130027025274e
-28 .03048 16 373 775 0 375 376 370 371 ?0 0 1 31 374 408 0 376 371 377 0 +-.011
53658642877028 .463220710486283 1119921763505948e-29 .951056516295134 -.30901699
4375009 -459643124291929e-28 -.309016994375009 -.951056516295134 629130027025274
e-28 .03047999999999945 16 376 787 0 378 379 373 374 ?0 0 1 31 377 407 0 379 374
 380 0 +.0155982215165462 .45440407693135 989470558112492e-29 .951056516295134 -
.309016994375009 -459643124291929e-28 -.309016994375009 -.951056516295134 629130
027025274e-28 .01425316433035704 16 379 799 0 381 382 376 377 ?0 0 1 31 380 406
 0 382 377 383 0 +.0155860044784796 .454408046487648 989470558112492e-29 .951056
516295134 -.309016994375009 -459643124291929e-28 -.309016994375009 -.95105651629
5134 629130027025274e-28 .0129820204885859 16 382 811 0 384 385 379 380 ?0 0 1 3
1 383 405 0 385 380 259 0 +-.01636795353154955 .464790516817708 1143514002779232
e-29 .951056516295134 -.309016994375009 -459643124291929e-28 -.309016994375009 -
.951056516295134 629130027025274e-28 .02794 16 385 823 0 386 387 382 383 ?0 0 1
 31 259 404 0 387 383 257 0 +-.0198465378455507 .465920777376334 116016734814861
e-28 .951056516295134 -.309016994375009 -459643124291929e-28 -.309016994375009 -
.951056516295134 629130027025274e-28 .02793999999999935 16 387 835 0 388 258 385
 259 ?0 0 1 17 388 389 390 391 141 392 387 0 393 +16 258 847 0 394 255 387 257 ?
0 0 1 17 394 395 393 396 137 397 258 0 398 +15 395 851 0 393 399 0 17 393 395 39
2 394 141 140 400 0 0 -17 396 395 394 392 79 87 27 0 0 -17 397 401 26 398 79 394
 258 0 396 -17 398 401 397 312 137 136 402 0 0 +15 401 197 0 312 277 0 17 312 40
1 398 26 134 403 310 0 404 +17 136 31 213 140 134 398 402 0 312 -16 402 1275 0 3
98 400 405 406 ?0 0 1 16 400 1278 0 140 407 402 408 ?0 0 1 16 405 1272 0 404 402
 409 8 ?21 21 1 30 406 1055 0 402 408 410 0 -.0261232005040966 .4416368047823785
 0 .951056516295134 -.309016994375009 -459643124291929e-28 32 408 1056 0 400 411
 406 0 +.00780309427348364 .427559012762045 983419029164706e-29 -413455711426175
5e-29 1358925468671158e-29 -1 .951056516295129 -.3090169943750265 -4352128549421
47e-28 .0381508 .01905 32 410 435 0 1 406 308 412 +.02507096391915945 .480704050
892618 809059316610904e-29 654793025410468e-28 4487513066392485e-29 1 .951056516
295139 -.3090169943749915 -484073393641723e-28 .0381508 .01905 32 308 434 0 1 41
0 305 413 +.02482939556402045 .480782541209189 924244955415764e-29 6547930254104
68e-28 4487513066392485e-29 1 .951056516295139 -.3090169943749915 -4840733936417
23e-28 .0342392 .0149606 141 412 414 412 412 410 68 414 374 0 399 415 416 0 +410
 .02887036158409045 .450091697212242 924244955415764e-29 .951056516295134 -.3090
16994375009 -459643124291929e-28 ????.3090169943750085 .951056516295134 -6291300
27025274e-28 .00889 14 399 199 417 418 419 395 6 414 +?0 0 418 419 25 51 415 375
 0 419 420 414 0 -.02887036158409045 .450091697212242 924244955415764e-29 .95105
6516295134 -.309016994375009 -459643124291929e-28 .02794 -.309016994375009 -.951
056516295134 629130027025274e-28 51 416 373 0 277 414 421 0 +.02887036158409045
 .450091697212242 924244955415764e-29 .951056516295134 -.309016994375009 -459643
124291929e-28 .00889 -.309016994375009 -.951056516295134 629130027025274e-28 14
 277 193 422 272 279 401 6 416 -?0 0 272 279 25 50 421 21 0 17 416 423 0 +.07762
90911682746 .3789583583522425 .0571158831226978 -567173473861011e-28 .1490348697
346632 -.988831941031019 -2434906349151145e-46 .988831941031019 .149034869734663
2 14 17 20 424 285 0 247 6 421 -?0 0 285 0 25 52 423 60 0 425 421 270 0 +.077629
0911682746 -250258941955768e-32 1268290885890766e-46 1 0 163378298883021e-44 .38
3238387260348 .950846466139898 .309662716240216 163378298883021e-44 0 -1 14 425
 59 426 427 19 428 6 423 -?0 0 427 19 25 52 270 61 0 285 423 20 0 +.051467725996
1584 -250258941955768e-32 84087095206298e-45 -1 0 -163378298883021e-44 .40692303
6150401 .671144558899998 .74132650098248 -163378298883021e-44 0 1 14 285 23 429
 281 17 430 6 270 -?0 0 281 17 25 81 2 429 495 431 285 432 0 433 424 434 435 15
 430 22 0 245 285 0 13 25 1374 0 0 0 0 0 0 10 17 17 245 430 436 246 182 220 239
 0 244 +17 436 430 217 245 185 184 437 0 0 +17 246 430 245 217 218 248 249 0 241
 -17 244 236 220 269 182 181 438 0 0 +17 269 236 244 237 174 439 255 0 440 +17 1
81 31 173 184 174 244 438 0 269 -16 438 1314 0 244 437 441 442 ?443 443 1 16 437
 1317 0 436 444 438 445 ?0 0 1 16 441 1311 0 173 438 446 447 ?0 0 1 30 442 1073
 0 443 448 449 0 +-.080749583300024 -250258941955768e-32 0 -.309016994374994 -.9
51056516295138 0 16 443 1326 0 237 450 235 442 ?438 438 1 17 237 236 269 229 194
 193 443 0 0 +16 450 1329 0 196 451 443 448 ?0 0 1 16 235 1323 0 190 443 444 449
 ?0 0 1 17 190 31 187 193 188 228 235 0 232 +16 444 1320 0 452 235 437 453 ?0 0
 1 30 449 1072 0 235 442 453 0 --1.81921555558951 -250258941955768e-32 0 -.97029
5726276002 -.241921895599644 0 30 453 1071 0 444 449 454 0 --.0471803751258333 -
250258941955768e-32 0 -.309662716240216 -.950846466139898 0 30 454 1070 0 455 45
3 445 0 +.0277950442470643 .446782210746838 0 .951056516295134 -.309016994375009
 -459643124291929e-28 16 455 1263 0 456 457 458 454 ?0 0 1 30 445 1069 0 437 454
 447 0 -.500942919616096 -250258941955768e-32 0 -.74132650098248 .67114455889999
8 0 30 447 1068 0 441 445 459 0 --.003950916478016745 .46075597691016 0 .7880107
53606694 -.615661475325694 0 30 459 1067 0 409 447 460 0 +.0467219105671031 .444
2913773393935 0 .999847695156392 .01745240643721815 0 16 409 1269 0 177 405 457
 459 ?0 0 1 31 460 1066 0 446 459 461 0 -.03376877043380835 .4151695963581925 85
346823759591e-28 0 0 1 1 0 0 .0127 16 446 1308 0 462 441 463 460 ?0 0 1 30 461 1
065 0 463 460 464 0 +.0910796403618241 .4298786772489085 0 .9993908270191 .03489
949670237965 0 16 463 1305 0 465 446 466 461 ?0 0 1 31 464 1064 0 466 461 467 0
 -.020598217175781 .452832894141577 964490540058426e-29 0 0 1 1 0 0 .0254 16 466
 1302 0 164 463 468 464 ?0 0 1 30 467 1063 0 468 464 469 0 +.02103702799027945 .
4259831753693735 0 .951056516295134 -.309016994375009 -459643124291929e-28 16 46
8 1299 0 470 466 471 467 ?0 0 1 32 469 1062 0 471 467 472 0 +.00544205458473435
 .42432008998616 1018895906119294e-29 -553431446545659e-28 -294908468714029e-28
 -1 .951056516295129 -.3090169943750265 -4352128549421385e-29 .0127 .0064008 16
 471 1296 0 473 468 474 469 ?0 0 1 30 472 1061 0 474 469 475 0 +.019451523595540
2 .4211034945955665 0 .951056516295134 -.309016994375009 -459643124291929e-28 16
 474 1293 0 476 471 477 472 ?0 0 1 32 475 1060 0 477 472 478 0 +.006776622752632
13 .4252218195272265 1113461638491114e-29 -660471714578206e-28 -624344539452551e
-28 -1 .951056516295129 -.3090169943750265 -435212854942132e-28 .0291592 .016230
6 16 477 1290 0 152 474 479 475 ?0 0 1 31 478 1059 0 479 475 480 0 -.01138289271
768892 .441455323442971 989470558112492e-29 0 0 1 1 0 0 .000635605522136751 16 4
79 1287 0 481 477 482 478 ?0 0 1 32 480 1058 0 482 478 411 0 +.0075615259183448
 .4276375030786165 1116243857390824e-29 -685173314893409e-28 -700368248084518e-2
8 -1 .951056516295129 -.3090169943750265 -4352128549421305e-29 .0342392 .0149606
 16 482 1284 0 483 479 407 480 ?0 0 1 30 411 1057 0 407 480 408 0 +.020236426761
2527 .423519178146956 0 .951056516295134 -.309016994375009 -459643124291929e-28
 16 407 1281 0 390 482 400 411 ?0 0 1 17 390 389 484 388 144 143 407 0 0 +15 389
 209 0 388 419 0 17 484 389 391 390 88 386 385 0 485 -17 143 31 140 146 141 390
 407 0 388 -15 31 1046 0 177 427 0 17 140 31 136 143 137 393 400 0 394 +17 146 3
1 143 149 144 483 482 0 386 -17 149 31 146 152 147 481 479 0 384 -17 483 486 487
 386 147 146 482 0 0 +17 386 486 483 485 144 484 385 0 390 +15 486 215 0 386 488
 0 17 485 486 386 487 88 99 489 0 0 +17 487 486 485 483 94 384 382 0 490 -17 99
 31 105 93 94 485 489 0 487 -16 489 1356 0 485 491 492 493 ?0 0 1 16 491 1359 0
 391 27 489 494 ?0 0 1 16 492 1353 0 490 489 495 496 ?0 0 1 32 493 1090 0 489 49
7 498 0 -.02482939556402045 .480782541209189 854760981285783e-29 731642448613322
e-28 685269511272034e-28 1 .951056516295139 -.3090169943749915 -484073393641728e
-28 .0342392 .0149606 30 497 1091 0 499 494 493 0 +.03997903877351855 .446482269
194303 0 .891006524188414 .453990499739456 0 30 498 1089 0 500 493 496 0 +.02810
508099752075 .447736405749637 0 .951056516295134 -.309016994375009 -459643124291
929e-28 16 500 1239 0 96 501 499 498 ?0 0 1 31 496 1088 0 492 498 502 0 -.019799
03521743435 .467357546660953 989470558112492e-29 0 0 1 1 0 0 .000635605522136751
 31 502 1087 0 501 496 503 0 -.03194543816128875 .4448194017855815 9034282737040
42e-29 0 0 1 1 0 0 .0015875 16 501 1242 0 102 504 500 502 ?0 0 1 32 503 1086 0 4
95 502 505 0 -.02561429872973305 .483198224760579 857543200185494e-29 7069408482
98119e-28 609245802640067e-28 1 .951056516295139 -.3090169943749915 -48407339364
1726e-28 .0291592 .0162306 16 495 1350 0 111 492 506 503 ?0 0 1 30 505 1085 0 50
4 503 507 0 +.0417925813984273 .445893013475512 0 .99862953475457 -.052335956242
9998 0 16 504 1245 0 108 508 501 505 ?0 0 1 30 507 1084 0 506 505 509 0 -.038289
1995726407 .479079899828918 0 .951056516295134 -.309016994375009 -45964312429192
9e-28 16 506 1347 0 510 495 511 507 ?0 0 1 31 509 1083 0 508 507 512 0 -.0298339
3050078845 .448109418411551 917306061511857e-29 0 0 1 1 0 0 .0015875 16 508 1248
 0 513 514 504 509 ?0 0 1 32 512 1082 0 511 509 515 0 -.0250646337275474 .484712
178770901 960510390515145e-29 600586735829884e-28 281921501585766e-28 1 .9510565
16295139 -.3090169943749915 -48407339364172e-27 .0127 .0064008 16 511 1344 0 516
 506 517 512 ?0 0 1 30 515 1081 0 514 512 518 0 +.0278892326269498 .447072092773
005 0 .951056516295134 -.309016994375009 -459643124291929e-28 16 514 1251 0 120
 519 508 515 ?0 0 1 30 518 1080 0 517 515 520 0 -.03670369517790145 .47420021905
5111 0 .951056516295134 -.309016994375009 -459643124291929e-28 16 517 1341 0 521
 511 522 518 ?0 0 1 31 520 1079 0 522 518 523 0 -.0205668210491525 .452736266799
521 964490540058426e-29 0 0 1 1 0 0 .0254 16 522 1338 0 202 517 524 520 ?0 0 1 3
1 523 1078 0 525 520 526 0 -.0246183339388868 .453609835982748 947837194689049e-
29 0 0 1 1 0 0 .00889 16 525 1257 0 129 458 519 523 ?0 0 1 30 526 1077 0 524 523
 527 0 +.0910796403618241 .4298786772489085 0 -.788010753606717 .615661475325664
 0 16 524 1335 0 528 522 451 526 ?0 0 1 30 527 1076 0 458 526 529 0 +.0443475421
7184775 .445062856397125 0 .999847695156392 .01745240643721765 0 16 458 1260 0 5
30 455 525 527 ?0 0 1 31 529 1075 0 451 527 448 0 -.0533599534499929 .4754650578
00878 85346823759591e-28 0 0 1 1 0 0 .0127 16 451 1332 0 531 524 450 529 ?0 0 1
 30 448 1074 0 450 529 442 0 --.003950916478016745 .46075597691016 0 -.999390827
019098 -.03489949670241745 0 17 531 286 363 532 200 199 451 0 0 +15 286 263 0 36
3 281 0 17 363 286 462 531 168 533 361 0 465 +17 532 286 531 462 197 360 358 0 5
34 -17 199 31 196 204 197 531 451 0 532 -17 196 31 193 199 194 534 450 0 439 +17
 204 31 199 202 200 528 524 0 533 -17 202 31 204 132 133 535 522 0 536 +17 528 2
90 366 533 133 204 524 0 0 +17 533 290 528 465 200 363 361 0 531 -15 290 258 0 5
33 284 0 17 465 290 533 366 168 167 463 0 0 +17 366 290 465 528 165 536 364 0 53
7 +17 167 31 164 170 165 465 463 0 366 -17 164 31 161 167 162 537 466 0 369 +17
 170 31 167 173 168 462 446 0 363 -17 173 31 170 181 171 440 441 0 360 +17 462 2
86 532 363 171 170 446 0 0 +17 440 278 439 360 174 173 441 0 0 -17 360 278 440 5
34 171 532 358 0 462 +15 278 870 0 440 272 0 17 534 278 360 439 197 196 450 0 0
 -17 439 278 534 440 194 269 255 0 237 -17 161 31 158 164 159 470 468 0 372 -17
 537 294 536 369 165 164 466 0 0 -17 369 294 537 535 162 538 367 0 470 +15 294 7
55 0 537 289 0 17 535 294 369 536 124 202 522 0 0 -17 538 298 521 470 124 369 36
7 0 535 -17 470 298 538 372 162 161 468 0 0 +15 298 245 0 372 293 0 17 372 298 4
70 521 159 539 370 0 473 +17 521 298 372 538 118 132 517 0 0 +17 539 303 516 473
 118 372 370 0 521 -17 473 303 539 375 159 158 471 0 0 +15 303 239 0 375 297 0 1
7 375 303 473 516 156 540 373 0 476 +17 158 31 155 161 156 473 471 0 375 -17 155
 31 152 158 153 476 474 0 378 -17 152 31 149 155 150 541 477 0 381 +17 476 542 5
40 378 156 155 474 0 0 +17 378 542 476 510 153 543 376 0 541 +15 542 233 0 378 3
02 0 17 510 542 378 540 106 117 506 0 0 +17 543 544 545 541 106 378 376 0 510 -1
7 541 544 543 381 153 152 477 0 0 -15 544 803 0 541 546 0 17 381 544 541 545 150
 547 379 0 481 +17 545 544 381 543 100 111 495 0 0 -17 547 548 490 481 100 381 3
79 0 545 -17 481 548 547 384 150 149 479 0 0 +15 548 221 0 384 549 0 17 384 548
 481 490 147 487 382 0 483 +17 490 548 384 547 94 105 492 0 0 +17 105 31 111 99
 100 490 492 0 547 -17 111 31 117 105 106 545 495 0 543 +17 117 31 123 111 112 5
10 506 0 540 -17 123 31 132 117 118 516 511 0 539 -17 540 542 510 476 112 375 37
3 0 516 -17 516 303 375 539 112 123 511 0 0 +17 132 31 202 123 124 521 517 0 538
 -14 549 217 550 488 546 548 6 551 -?0 0 488 546 25 81 2 550 503 431 549 552 0 5
53 554 555 556 14 488 211 553 419 549 486 6 420 -?0 0 419 549 25 14 546 223 554
 549 302 544 6 304 +?0 0 549 302 25 54 551 377 0 549 304 420 0 +.015590963967561
65 .454406435051962 989470558112492e-29 .951056516295134 -.309016994375009 -4596
43124291929e-28 .01361760461874792 .000635605522136751 -.309016994375009 -.95105
6516295134 629130027025274e-28 68 304 378 0 546 299 551 0 +305 .0288703615840904
5 .450091697212242 924244955415764e-29 .951056516295134 -.309016994375009 -45964
3124291929e-28 ????.309016994375009 .951056516295134 169274154576047e-28 .009034
2799651568 68 420 376 0 488 551 415 0 +308 .02887036158409045 .450091697212242 9
24244955415764e-29 .951056516295134 -.309016994375009 -459643124291929e-28 ????.
309016994375009 .951056516295134 247450472320973e-28 .00653693872403561 81 2 554
 504 431 546 557 0 550 558 559 560 14 302 229 558 546 297 542 6 299 -?0 0 546 29
7 25 81 2 558 505 431 302 561 0 554 301 562 563 80 2 431 564 9000 565 0 0 0 0 3
 6 0 0 FFFFTFFFFFFFF1 1 91 561 -32764 566 302 567 558 557 568 81 2 301 506 431 2
97 568 0 558 296 569 570 82 1 562 11566 82 1 563 7 91 568 -32764 566 297 571 301
 561 572 81 2 296 507 431 293 572 0 301 292 573 574 82 1 569 11566 82 1 570 8 91
 572 -32764 566 293 575 296 568 576 81 2 292 508 431 289 576 0 296 288 577 578 8
2 1 573 11566 82 1 574 9 91 576 -32764 566 289 579 292 572 580 81 2 288 509 431
 284 580 0 292 283 581 582 82 1 577 11566 82 1 578 10 91 580 -32764 566 284 583
 288 576 584 81 2 283 510 431 281 584 0 288 585 586 587 82 1 581 11566 82 1 582
 11 91 584 -32764 566 281 588 283 580 589 81 2 585 511 431 279 589 0 283 590 591
 592 82 1 586 11566 82 1 587 12 14 279 276 585 277 593 594 6 273 +?0 0 277 593 2
5 91 589 -32764 566 279 595 585 584 596 81 2 590 512 431 593 596 0 585 597 598 5
99 82 1 591 11566 82 1 592 15 14 593 281 590 279 600 601 6 280 -?0 0 279 600 25
 91 596 -32764 566 593 602 590 589 603 81 2 597 513 431 600 603 0 590 604 605 60
6 82 1 598 11566 82 1 599 16 14 600 287 597 593 607 608 6 609 +?0 0 593 607 25 9
1 603 -32764 566 600 610 597 596 611 81 2 604 514 431 607 611 0 597 612 613 614
 82 1 605 11566 82 1 606 17 14 607 293 604 600 615 616 6 617 +?0 0 600 615 25 91
 611 -32764 566 607 618 604 603 619 81 2 612 515 431 615 619 0 604 620 621 622 8
2 1 613 11566 82 1 614 18 14 615 299 612 607 623 624 6 625 +?0 0 607 623 25 91 6
19 -32764 566 615 626 612 611 627 81 2 620 516 431 623 627 0 612 628 629 630 82
 1 621 11566 82 1 622 19 14 623 305 620 615 631 632 6 633 +?0 0 615 631 25 91 62
7 -32764 566 623 634 620 619 635 81 2 628 517 431 631 635 0 620 636 637 638 82 1
 629 11566 82 1 630 20 14 631 311 628 623 639 640 6 641 +?0 0 623 639 25 91 635
 -32764 566 631 642 628 627 643 81 2 636 518 431 639 643 0 628 644 645 646 82 1
 637 11566 82 1 638 21 14 639 317 636 631 647 648 6 649 -?0 0 631 647 25 91 643
 -32764 566 639 650 636 635 651 81 2 644 519 431 647 651 0 636 652 653 654 82 1
 645 11566 82 1 646 22 14 647 323 644 639 655 656 6 657 +?0 0 639 655 25 91 651
 -32764 566 647 658 644 643 659 81 2 652 520 431 655 659 0 644 660 661 662 82 1
 653 11566 82 1 654 23 14 655 329 652 647 663 664 6 665 +?0 0 647 663 25 91 659
 -32764 566 655 666 652 651 667 81 2 660 521 431 663 667 0 652 668 669 670 82 1
 661 11566 82 1 662 24 14 663 335 660 655 671 672 6 673 +?0 0 655 671 25 91 667
 -32764 566 663 674 660 659 675 81 2 668 522 431 671 675 0 660 676 677 678 82 1
 669 11566 82 1 670 25 14 671 341 668 663 679 680 6 681 -?0 0 663 679 25 91 675
 -32764 566 671 682 668 667 683 81 2 676 523 431 679 683 0 668 684 685 686 82 1
 677 11566 82 1 678 26 14 679 347 676 671 687 688 6 689 -?0 0 671 687 25 91 683
 -32764 566 679 690 676 675 691 81 2 684 524 431 687 691 0 676 692 693 694 82 1
 685 11566 82 1 686 27 14 687 353 684 679 695 696 6 697 +?0 0 679 695 25 91 691
 -32764 566 687 698 684 683 699 81 2 692 525 431 695 699 0 684 700 701 702 82 1
 693 11566 82 1 694 28 14 695 359 692 687 418 703 6 704 +?0 0 687 418 25 91 699
 -32764 566 695 705 692 691 706 81 2 700 526 431 418 706 0 692 0 707 708 82 1 70
1 11566 82 1 702 29 14 418 365 700 695 399 709 6 710 -?0 0 695 399 25 91 706 -32
764 566 418 711 700 699 712 82 1 707 11566 82 1 708 30 90 566 148 713 1 714 715
 2 712 91 711 -32764 715 418 716 706 705 717 91 712 -32764 566 272 0 717 706 0 9
1 717 -32764 715 272 712 718 711 0 90 715 152 719 1 566 720 2 717 81 1 718 440 7
21 272 717 722 716 723 724 80 1 721 725 8015 726 0 0 0 0 3 5 0 0 FFFFTFFFFFFFF2
 81 1 722 441 727 272 718 276 728 729 730 81 1 716 367 721 418 728 711 731 718 7
32 81 1 723 442 721 243 733 729 718 0 734 83 1 724 0 14 243 53 433 19 272 236 6
 20 -?0 0 19 272 25 91 733 -32764 714 243 0 723 735 432 81 1 729 443 727 243 723
 433 722 0 736 83 1 734 0 80 1 727 0 8001 737 0 0 0 0 3 5 0 0 FFFFTFTFFFFFF2 81
 2 433 494 431 243 729 0 738 429 739 740 83 3 736 1 1 0 81 2 738 493 431 19 735
 0 426 433 741 742 82 1 739 11564 82 1 740 3 14 19 56 738 425 243 226 6 7 +?0 0
 425 243 25 91 735 -32764 714 19 743 738 744 733 81 2 426 492 431 425 744 0 0 73
8 745 746 82 1 741 11564 82 1 742 2 91 744 -32764 714 425 747 426 0 735 82 1 745
 11564 82 1 746 1 90 714 87 748 1 0 566 2 749 81 1 747 76 721 425 750 744 0 743
 751 81 1 750 75 727 425 0 747 0 752 753 81 1 743 78 721 19 752 735 747 754 755
 83 1 751 0 81 1 752 77 727 19 0 743 750 756 757 81 1 754 82 721 285 756 432 743
 758 759 83 1 755 0 81 1 756 81 727 285 0 754 752 760 761 91 432 -32764 714 285
 754 429 733 749 81 1 758 84 721 17 760 749 754 762 763 83 1 759 0 81 1 760 83 7
27 17 0 758 756 764 765 91 749 -32764 714 17 758 424 432 0 81 1 762 195 721 277
 764 766 758 767 768 83 1 763 0 81 1 764 196 727 277 0 762 760 769 770 91 766 -3
2764 715 277 762 771 0 772 81 1 767 201 721 399 769 772 762 773 774 83 1 768 0 8
1 1 769 202 727 399 0 767 764 775 776 91 772 -32764 715 399 767 777 766 778 81 1
 773 207 721 419 775 778 767 779 780 83 1 774 0 14 419 205 781 399 488 389 6 415
 -?0 0 399 488 25 81 1 775 208 727 419 0 773 769 782 783 91 778 -32764 715 419 7
73 784 772 785 81 1 779 213 721 488 782 785 773 786 787 83 1 780 0 81 1 782 214
 727 488 0 779 775 788 789 91 785 -32764 715 488 779 790 778 791 81 1 786 219 72
1 549 788 791 779 792 793 83 1 787 0 81 1 788 220 727 549 0 786 782 794 795 91 7
91 -32764 715 549 786 552 785 796 81 1 792 225 721 546 794 796 786 797 798 83 1
 793 0 81 1 794 226 727 546 0 792 788 799 800 91 796 -32764 715 546 792 557 791
 567 81 1 797 231 721 302 799 567 792 801 802 83 1 798 0 81 1 799 232 727 302 0
 797 794 803 804 91 567 -32764 715 302 797 561 796 571 81 1 801 237 721 297 803
 571 797 805 806 83 1 802 0 81 1 803 238 727 297 0 801 799 807 808 91 571 -32764
 715 297 801 568 567 575 81 1 805 243 721 293 807 575 801 809 810 83 1 806 0 81
 1 807 244 727 293 0 805 803 811 812 91 575 -32764 715 293 805 572 571 579 81 1
 809 249 721 289 811 579 805 813 814 83 1 810 0 81 1 811 250 727 289 0 809 807 8
15 816 91 579 -32764 715 289 809 576 575 583 81 1 813 255 721 284 815 583 809 81
7 818 83 1 814 0 81 1 815 256 727 284 0 813 811 819 820 91 583 -32764 715 284 81
3 580 579 588 81 1 817 261 721 281 819 588 813 821 822 83 1 818 0 81 1 819 262 7
27 281 0 817 815 823 824 91 588 -32764 715 281 817 584 583 595 81 1 821 278 721
 279 823 595 817 825 826 83 1 822 0 81 1 823 279 727 279 0 821 819 827 828 91 59
5 -32764 715 279 821 589 588 602 81 1 825 283 721 593 827 602 821 829 830 83 1 8
26 0 81 1 827 284 727 593 0 825 823 831 832 91 602 -32764 715 593 825 596 595 61
0 81 1 829 289 721 600 831 610 825 833 834 83 1 830 0 81 1 831 290 727 600 0 829
 827 835 836 91 610 -32764 715 600 829 603 602 618 81 1 833 295 721 607 835 618
 829 837 838 83 1 834 0 81 1 835 296 727 607 0 833 831 839 840 91 618 -32764 715
 607 833 611 610 626 81 1 837 301 721 615 839 626 833 841 842 83 1 838 0 81 1 83
9 302 727 615 0 837 835 843 844 91 626 -32764 715 615 837 619 618 634 81 1 841 3
07 721 623 843 634 837 845 846 83 1 842 0 81 1 843 308 727 623 0 841 839 847 848
 91 634 -32764 715 623 841 627 626 642 81 1 845 313 721 631 847 642 841 849 850
 83 1 846 0 81 1 847 314 727 631 0 845 843 851 852 91 642 -32764 715 631 845 635
 634 650 81 1 849 319 721 639 851 650 845 853 854 83 1 850 0 81 1 851 320 727 63
9 0 849 847 855 856 91 650 -32764 715 639 849 643 642 658 81 1 853 325 721 647 8
55 658 849 857 858 83 1 854 0 81 1 855 326 727 647 0 853 851 859 860 91 658 -327
64 715 647 853 651 650 666 81 1 857 331 721 655 859 666 853 861 862 83 1 858 0 8
1 1 859 332 727 655 0 857 855 863 864 91 666 -32764 715 655 857 659 658 674 81 1
 861 337 721 663 863 674 857 865 866 83 1 862 0 81 1 863 338 727 663 0 861 859 8
67 868 91 674 -32764 715 663 861 667 666 682 81 1 865 343 721 671 867 682 861 86
9 870 83 1 866 0 81 1 867 344 727 671 0 865 863 871 872 91 682 -32764 715 671 86
5 675 674 690 81 1 869 349 721 679 871 690 865 873 874 83 1 870 0 81 1 871 350 7
27 679 0 869 867 875 876 91 690 -32764 715 679 869 683 682 698 81 1 873 355 721
 687 875 698 869 731 877 83 1 874 0 81 1 875 356 727 687 0 873 871 878 879 91 69
8 -32764 715 687 873 691 690 705 81 1 731 361 721 695 878 705 873 716 880 83 1 8
77 0 81 1 878 362 727 695 0 731 875 728 881 91 705 -32764 715 695 731 699 698 71
1 83 1 880 0 81 1 728 368 727 418 0 716 878 722 882 83 3 881 1 1 1 83 3 882 1 1
 1 83 3 879 1 1 1 83 3 876 1 1 1 83 3 872 1 1 1 83 3 868 1 1 1 83 3 864 1 1 1 83
 3 860 1 1 1 83 3 856 1 1 1 83 3 852 1 1 1 83 3 848 1 1 1 83 3 844 1 1 1 83 3 84
0 1 1 1 83 3 836 1 1 1 83 3 832 1 1 1 83 3 828 1 1 1 83 3 824 1 1 1 83 3 820 1 1
 1 83 3 816 1 1 1 83 3 812 1 1 1 83 3 808 1 1 1 83 3 804 1 1 1 91 557 -32764 566
 546 796 554 552 561 91 552 -32764 566 549 791 550 790 557 91 790 -32764 566 488
 785 553 784 552 81 2 553 502 431 488 790 0 781 550 883 884 91 784 -32764 566 41
9 778 781 777 790 81 2 781 501 431 419 784 0 417 553 885 886 91 777 -32764 566 3
99 772 417 771 784 81 2 417 500 431 399 777 0 422 781 887 888 91 771 -32764 566
 277 766 422 0 777 81 2 422 499 431 277 771 0 276 417 889 890 81 2 276 498 431 2
72 722 0 424 422 891 892 82 1 889 11566 82 1 890 1 81 2 424 496 431 17 749 0 429
 276 893 894 82 1 891 11566 82 1 892 13 82 1 893 11564 82 1 894 5 82 1 887 11566
 82 1 888 2 82 1 885 11566 82 1 886 3 82 1 883 11566 82 1 884 4 83 3 800 1 1 1 8
3 3 795 1 1 1 83 3 789 1 1 1 83 3 783 1 1 1 83 3 776 1 1 1 83 3 770 1 1 1 83 3 7
65 1 1 0 83 3 761 1 1 0 83 3 757 1 1 0 83 3 753 1 1 0 81 1 748 491 895 714 896 0
 713 0 897 80 1 895 898 9000 899 0 0 0 0 3 5 0 0 FFFFFFFFTFFFF1 81 1 896 90 898
 714 900 748 0 901 902 81 1 713 490 895 566 901 0 719 748 903 82 1 897 11564 81
 1 901 149 898 566 904 713 896 905 906 81 1 719 489 895 715 907 0 0 713 908 82 1
 903 11565 81 1 907 153 909 715 905 719 904 0 910 82 1 908 11566 80 1 909 431 90
00 911 0 0 0 0 3 5 0 0 FFFFFFFFTFFFF1 81 1 905 155 898 715 0 907 901 0 912 81 1
 904 150 909 566 0 901 900 907 913 82 1 910 1 81 1 900 89 909 714 0 896 0 904 91
4 82 1 913 0 82 1 914 0 80 1 898 909 9000 915 0 0 0 0 3 5 0 0 FFFFFFFFTFFFF1 82
 1 912 0 79 23 915 UG2/CMOD_DUMY_ATTRIBUTE79 23 911 UG2/CMOD_NEST_ATTRIBUTE82 1
 906 0 82 1 902 0 79 23 899 UG2/CMOD_FEAT_ATTRIBUTE79 15 737 SDL/TYSA_COLOUR83 1
 732 0 83 3 730 1 1 1 79 21 726 SDL/TYSA_TRANSLUCENCY81 2 720 439 916 1 715 917
 0 0 918 919 80 2 916 920 8004 921 0 0 0 0 3 5 0 0 FFTFFFFFFFFFF2 3 81 1 917 444
 922 1 720 923 0 0 924 83 1 918 7830.64369935348 84 8 919 KG/CU M 80 1 922 895 9
000 925 0 0 0 0 3 5 0 0 FFTFFFFFFFFFF1 81 1 923 486 926 1 917 14 0 0 927 82 1 92
4 1425 80 1 926 922 9000 928 0 0 0 0 3 5 0 0 FFTFFFFFFFFFF1 81 1 14 487 929 1 92
3 2 0 0 930 82 1 927 11564 80 1 929 926 9000 931 0 0 0 0 3 5 0 0 FFTFFFFFFFFFF1
 82 1 930 0 79 23 931 UG2/CMOD_META_ATTRIBUTE79 23 928 UG2/CMOD_ROOT_ATTRIBUTE79
 7 925 body_id79 16 921 SDL/TYSA_DENSITY15 709 369 0 315 418 0 53 710 402 0 418
 932 704 0 +.0207522562439977 .452729429533332 992246115674055e-29 .00889 .95105
651629514 -.3090169943749905 -484073393641724e-28 -.3090169943749905 -.951056516
29514 629130027025265e-28 50 932 1054 0 427 0 710 0 +.0376237473 .4472475498 0 0
 0 1 1 0 0 52 704 401 0 695 710 697 0 -.02350489996852225 .451835041370522 95061
2752250612e-29 -.951056516295134 .309016994375009 459643124291929e-28 .008405660
13707791 .325568154457156 .945518575599317 .309016994375009 .951056516295134 -62
9130027025274e-28 50 697 400 0 687 704 689 0 +.03756270618365705 .45119333289826
 838202671007314e-29 -.951056516295134 .309016994375009 459643124291929e-28 .309
016994375009 .951056516295134 -629130027025274e-28 51 689 399 0 679 697 681 0 -.
02887036158409045 .450091697212242 924244955415764e-29 .951056516295134 -.309016
994375009 -459643124291929e-28 .0034798 -.309016994375009 -.951056516295134 6291
30027025274e-28 52 681 398 0 671 689 673 0 -.0267430551308414 .450782900978826 9
35347185662016e-29 -.951056516295134 .309016994375009 459643124291929e-28 .00637
366013707796 .3255681544571555 .945518575599317 .309016994375009 .95105651629513
4 -629130027025274e-28 54 673 397 0 663 681 665 0 +.0239904114063168 .4516772891
41636 947837194689049e-29 .951056516295134 -.309016994375009 -459643124291929e-2
8 -.00203199999999995 .00889 -.309016994375009 -.951056516295134 629130027025274
e-28 50 665 396 0 655 673 657 0 +.0261096499537405 .458199634730389 922857176634
983e-29 -.951056516295134 .309016994375009 459643124291929e-28 .309016994375009
 .951056516295134 -629130027025274e-28 51 657 395 0 647 665 649 0 -.028870361584
09045 .450091697212242 924244955415764e-29 .951056516295134 -.309016994375009 -4
59643124291929e-28 .003174999999999965 -.309016994375009 -.951056516295134 62913
0027025274e-28 54 649 394 0 639 657 641 0 +.03032449497935875 .4496192206311695
 917306061511857e-29 .951056516295134 -.309016994375009 -459643124291929e-28 .00
158749999999995 .0015875 -.309016994375009 -.951056516295134 629130027025274e-28
 52 641 393 0 631 649 633 0 -.0307152605481341 .4494922532012645 914530503950294
e-29 -.951056516295134 .309016994375009 459643124291929e-28 .00312090724923387 .
258819045102529 .965925826289066 .309016994375009 .951056516295134 -629130027025
274e-28 54 633 392 0 623 641 625 0 +.0332012832264288 .448684495467805 903428273
704042e-29 .951056516295134 -.309016994375009 -459643124291929e-28 .004064 .0015
875 -.309016994375009 -.951056516295134 629130027025274e-28 51 625 391 0 615 633
 617 0 -.02887036158409045 .450091697212242 924244955415764e-29 .951056516295134
 -.309016994375009 -459643124291929e-28 .002476499999999955 -.309016994375009 -.
951056516295134 629130027025274e-28 52 617 390 0 607 625 609 0 -.037623747310913
5 .4472475497808725 882611591992321e-29 -.951056516295134 .309016994375009 45964
3124291929e-28 .00247649999999996 .707106781186521 .707106781186574 .30901699437
5009 .951056516295134 -629130027025274e-28 50 609 389 0 600 617 280 0 +.03874779
958233215 .448898712165715 842366007349659e-29 -.951056516295134 .30901699437500
9 459643124291929e-28 .309016994375009 .951056516295134 -629130027025274e-28 51
 280 388 0 593 609 273 0 -.02887036158409045 .450091697212242 924244955415764e-2
9 .951056516295134 -.309016994375009 -459643124291929e-28 .001587499999999955 -.
309016994375009 -.951056516295134 629130027025274e-28 14 427 1045 0 0 425 31 6 9
32 -?0 0 0 425 25 17 315 709 404 933 179 934 313 0 935 +17 404 709 403 315 134 2
13 405 0 0 +17 933 709 315 403 138 936 21 0 0 +17 934 703 937 935 138 315 313 0
 933 -17 935 703 934 318 179 177 409 0 0 -15 703 552 0 937 695 0 17 318 703 935
 937 175 36 316 0 938 +17 177 31 211 213 175 935 409 0 318 +17 211 31 209 177 17
8 938 457 0 321 +17 213 31 177 136 179 404 405 0 315 -17 209 31 206 211 207 456
 455 0 324 -17 938 696 36 321 175 211 457 0 0 -16 457 1266 0 211 409 455 939 ?35
 35 1 17 321 696 938 34 178 940 319 0 456 +15 696 564 0 938 687 0 17 34 696 321
 36 30 29 35 0 0 -17 940 688 941 456 30 321 319 0 34 -17 456 688 940 324 178 209
 455 0 0 +15 688 351 0 324 679 0 17 324 688 456 941 207 942 322 0 530 +17 941 68
8 324 940 37 33 943 0 0 +17 942 680 944 530 37 324 322 0 941 -17 530 680 942 327
 207 206 458 0 0 +15 680 346 0 942 671 0 17 327 680 530 944 130 945 325 0 946 +1
7 206 31 129 209 130 530 458 0 327 -17 129 31 126 206 127 946 525 0 330 +17 126
 31 120 129 121 947 519 0 333 +17 946 672 945 330 130 129 525 0 0 -17 330 672 94
6 948 127 949 328 0 947 +15 672 600 0 946 663 0 17 948 672 330 945 45 44 950 0 0
 -17 949 664 951 947 45 330 328 0 948 -17 947 664 949 333 127 126 519 0 0 -15 66
4 612 0 947 655 0 17 333 664 947 951 121 952 331 0 953 +16 519 1254 0 126 525 51
4 954 ?955 955 1 30 954 1105 0 519 956 957 0 +.0261096499537405 .458199634730389
 0 .309016994375009 .951056516295134 0 16 955 1200 0 47 958 950 954 ?519 519 1 1
7 47 31 44 50 45 951 955 0 949 +16 958 1203 0 50 959 955 957 ?0 0 1 16 950 1197
 0 44 955 960 956 ?0 0 1 17 44 31 41 47 42 948 950 0 945 +16 960 1194 0 944 950
 943 961 ?0 0 1 31 956 1106 0 950 961 954 0 -.0233624888737468 .4497447423005245
 947837194689049e-29 0 0 1 1 0 0 .00889 30 961 1107 0 960 962 956 0 +.0443475421
7184775 .445062856397125 0 -.798635510047254 .601815023152098 0 30 962 1108 0 94
3 939 961 0 -.0299456789211166 .453401183677646 0 .951056516295134 -.30901699437
5009 -459643124291929e-28 16 943 1191 0 941 960 35 962 ?0 0 1 30 939 1109 0 457
 963 962 0 +.03756270618365705 .45119333289826 0 .309016994375009 .9510565162951
34 0 30 963 1110 0 964 0 939 0 +.0467219105671031 .4442913773393935 0 -.79863551
0047254 .601815023152099 0 16 964 1185 0 32 35 21 963 ?0 0 1 17 32 31 936 29 138
 937 964 0 934 +16 35 1188 0 29 943 964 939 ?457 457 1 16 21 537 0 933 964 238 8
 ?405 405 1 17 936 31 81 32 23 933 21 0 26 -17 937 703 318 934 12 32 964 0 0 -17
 81 31 87 936 79 26 11 0 397 -18 23 1010 0 936 179 79 9 ?1 17 26 401 312 397 23
 81 11 0 403 +17 403 709 933 404 23 312 310 0 0 -17 87 31 93 81 82 396 27 0 392
 +17 93 31 99 87 88 391 491 0 484 -16 27 1362 0 87 11 491 965 ?0 0 1 17 392 395
 396 393 82 388 387 0 391 -17 391 389 388 484 82 93 491 0 0 +32 965 1093 0 27 96
6 494 0 -.02507096391915945 .480704050892618 984630429814339e-29 4606110007104e-
26 -1488795139953784e-29 1 .951056516295139 -.3090169943749915 -484073393641712e
-28 .0381508 .01905 30 966 1094 0 967 28 965 0 +.02837979710552015 .448581894992
6235 0 .951056516295134 -.309016994375009 -459643124291929e-28 30 494 1092 0 491
 965 497 0 -.0375042964069282 .476664216277528 0 .951056516295134 -.309016994375
009 -459643124291929e-28 16 967 1230 0 968 969 970 966 ?0 0 1 30 28 1095 0 11 97
1 966 0 +.0316175226640843 .458546589642106 0 .951056516295134 -.309016994375009
 -459643124291929e-28 30 971 1096 0 970 972 28 0 +.02936092606266075 .4516014994
31861 0 .309016994375009 .951056516295134 0 16 970 1227 0 74 967 973 971 ?0 0 1
 30 972 1097 0 973 974 971 0 -.02936092606266075 .451601499431861 0 .95105651629
5134 -.309016994375009 -459643124291929e-28 16 973 1224 0 975 970 976 972 ?0 0 1
 30 974 1098 0 969 977 972 0 +.03874779958233215 .448898712165715 0 .30901699437
5009 .951056516295134 0 16 969 1233 0 84 499 967 974 ?976 976 1 30 977 1099 0 97
8 979 974 0 +.03997903877351855 .446482269194303 0 -.453990499739522 .8910065241
8838 0 16 978 1218 0 65 976 980 977 ?0 0 1 30 979 1100 0 980 981 977 0 -.0296356
4217066015 .452446988674847 0 .951056516295134 -.309016994375009 -45964312429192
9e-28 16 980 1215 0 62 978 982 979 ?0 0 1 31 981 1101 0 982 983 979 0 -.03445712
829156885 .452549589150029 903428273704042e-29 0 0 1 1 0 0 .0015875 16 982 1212
 0 59 980 984 981 ?0 0 1 30 983 1102 0 984 985 981 0 +.0417925813984273 .4458930
13475512 0 -.838670567945384 .544639035015088 0 16 984 1209 0 56 982 959 983 ?0
 0 1 31 985 1103 0 959 957 983 0 -.03081505945792905 .451129022850788 9173060615
11857e-29 0 0 1 1 0 0 .0015875 16 959 1206 0 986 984 958 985 ?0 0 1 30 957 1104
 0 958 954 985 0 -.0298514905412311 .453111301651479 0 .951056516295134 -.309016
994375009 -459643124291929e-28 17 986 648 339 987 54 53 959 0 0 +15 648 321 0 33
9 639 0 17 339 648 513 986 109 988 337 0 989 +17 987 648 986 513 51 336 334 0 99
0 -17 53 31 50 56 51 986 959 0 987 -17 50 31 47 53 48 990 958 0 952 +17 56 31 53
 59 54 991 984 0 988 +17 59 31 56 62 57 992 982 0 993 +17 991 640 342 988 57 56
 984 0 0 -17 988 640 991 989 54 339 337 0 986 -15 640 648 0 991 631 0 17 989 640
 988 342 109 108 504 0 0 -17 342 640 989 991 103 993 340 0 994 +17 108 31 102 11
4 103 989 504 0 342 +17 102 31 96 108 97 994 501 0 345 +17 114 31 108 120 109 51
3 508 0 339 -17 120 31 114 126 115 953 514 0 336 +17 513 648 987 339 115 114 508
 0 0 +17 953 656 952 336 121 120 514 0 0 -17 336 656 953 990 115 987 334 0 513 +
15 656 624 0 953 647 0 17 990 656 336 952 51 50 958 0 0 -17 952 656 990 953 48 3
33 331 0 951 -17 951 664 333 949 48 47 955 0 0 -17 96 31 90 102 91 995 500 0 348
 +17 994 632 993 345 103 102 501 0 0 -17 345 632 994 992 97 996 343 0 995 +15 63
2 660 0 994 623 0 17 992 632 345 993 60 59 982 0 0 -17 996 624 997 995 60 345 34
3 0 992 -17 995 624 996 348 97 96 500 0 0 -15 624 672 0 995 615 0 17 348 624 995
 997 91 998 346 0 999 +17 997 624 348 996 63 62 980 0 0 -17 998 616 1000 999 63
 348 346 0 997 -17 999 616 998 351 91 90 499 0 0 -15 616 684 0 1000 607 0 17 351
 616 999 1000 85 1001 349 0 1002 +17 90 31 84 96 85 999 499 0 351 +16 499 1236 0
 90 500 969 497 ?0 0 1 17 84 31 77 90 78 1002 969 0 354 +17 77 31 74 84 75 968 9
67 0 357 -17 1002 608 1001 354 85 84 969 0 0 -17 354 608 1002 1003 78 1004 352 0
 968 +15 608 696 0 1002 600 0 17 1003 608 354 1001 69 68 976 0 0 -17 1004 601 97
5 968 69 354 352 0 1003 -17 968 601 1004 357 78 77 967 0 0 +15 601 285 0 357 593
 0 17 357 601 968 975 75 1005 355 0 1006 +17 975 601 357 1004 72 71 973 0 0 +17
 1005 594 1006 1006 72 357 355 0 975 -17 1006 594 1005 1005 75 74 970 0 0 -15 59
4 714 0 1006 279 0 17 74 31 71 77 72 1006 970 0 1005 +17 71 31 68 74 69 975 973
 0 1004 -17 68 31 65 71 66 1003 976 0 1001 +17 65 31 62 68 63 1000 978 0 998 +16
 976 1221 0 68 973 978 974 ?969 969 1 17 1001 608 1003 1002 66 351 349 0 1000 -1
7 1000 616 351 998 66 65 978 0 0 -17 62 31 59 65 60 997 980 0 996 +17 993 632 99
2 994 57 342 340 0 991 -17 944 680 327 942 42 41 960 0 0 +17 41 31 33 44 37 944
 960 0 942 -17 33 31 29 41 30 941 943 0 940 -17 945 672 948 946 42 327 325 0 944
 -17 36 696 34 938 12 318 316 0 937 -79 23 565 UG2/CMOD_FACR_ATTRIBUTE82 1 559 1
1566 82 1 560 6 82 1 555 11566 82 1 556 5 17 536 294 535 537 133 366 364 0 528 -
17 193 31 190 196 191 237 443 0 229 -17 452 428 223 264 188 187 444 0 0 +15 428
 58 0 264 425 0 17 223 428 252 452 221 232 238 0 251 -17 264 428 452 252 185 217
 261 0 436 +17 187 31 184 190 185 452 444 0 264 -17 184 31 181 187 182 436 437 0
 245 -17 252 428 264 223 215 251 253 0 248 -17 217 430 246 436 215 264 261 0 252
 -17 248 247 251 241 215 246 249 0 0 +17 232 226 228 227 188 223 238 0 452 +82 1
 434 11564 82 1 435 4 141 413 420 413 413 308 141 309 304 309 309 305 141 271 22
 271 271 20 19 18 1 0 1 0 10 6 S74 20 16 11 0 700 729 723 907 905 748 720 917 92
3 14 2 0 0 0 0 0 0 0 0 0 80 1 13 929 9000 1007 0 0 0 0 3 5 0 0 FFTFFFFFFFFFF1 82
 1 15 11569 79 23 1007 UG2/CMOD_HOBJ_ATTRIBUTE1 0 
